<?xml version="1.0" encoding="UTF-8"?>
<svg id="Layer_2" data-name="Layer 2" xmlns="http://www.w3.org/2000/svg" xmlns:xlink="http://www.w3.org/1999/xlink" viewBox="0 0 706.45 281.73">
  <defs>
    <style>
      .cls-1 {
        clip-path: url(#clippath);
      }

      .cls-2 {
        fill: none;
      }

      .cls-2, .cls-3, .cls-4, .cls-5, .cls-6 {
        stroke-width: 0px;
      }

      .cls-3 {
        fill: url(#linear-gradient);
      }

      .cls-4 {
        fill: url(#linear-gradient-2);
      }

      .cls-5 {
        fill: url(#linear-gradient-3);
      }

      .cls-6 {
        fill: #4c4475;
      }
    </style>
    <linearGradient id="linear-gradient" x1="172.07" y1="188.6" x2="65.12" y2="31.02" gradientUnits="userSpaceOnUse">
      <stop offset=".21" stop-color="#36e8ff"/>
      <stop offset=".93" stop-color="#e0f0a7"/>
    </linearGradient>
    <linearGradient id="linear-gradient-2" x1="118.34" y1="219.55" x2="-1.96" y2="42.31" gradientUnits="userSpaceOnUse">
      <stop offset="0" stop-color="#275ed3"/>
      <stop offset=".58" stop-color="#489ff8"/>
    </linearGradient>
    <clipPath id="clippath">
      <path class="cls-2" d="m96.81,90.48c-1.07-.01-2.15,0-3.21.01-17.03.36-30.6,14.4-30.6,31.44h0c0,16.79,13.19,30.62,29.97,31.41l2.67.13c17.99,0,32.63,14.64,32.63,32.63s-14.64,32.63-32.63,32.63c0,0-62.79,6.13-89.92-65.26C1.89,164-.14,175.39,0,187.28c.62,51.4,42.45,93.5,93.84,94.44,54.22.99,98.38-43.16,97.4-97.39-.93-51.4-43.04-93.23-94.44-93.85Z"/>
    </clipPath>
    <linearGradient id="linear-gradient-3" x1="33.28" y1="207.3" x2="-45.29" y2="91.54" gradientUnits="userSpaceOnUse">
      <stop offset="0" stop-color="#2727d3"/>
      <stop offset=".38" stop-color="#489ff8"/>
    </linearGradient>
  </defs>
  <g id="Layer_1-2" data-name="Layer 1">
    <g>
      <path class="cls-3" d="m191.81,124.73c0,52.59-42.62,95.21-95.21,95.21S1.39,177.32,1.39,124.73,44.02,29.52,96.6,29.52c25.12,0,47.95,9.72,64.96,25.61L191.26,0v114.47c.36,3.37.55,6.79.55,10.26Z"/>
      <g>
        <path class="cls-6" d="m271.35,142.88c-21,0-36.07-15.65-36.07-35v-.19c0-19.35,15.26-35.19,36.26-35.19s36.07,15.65,36.07,35v.19c0,19.35-15.26,35.19-36.26,35.19Zm20.61-35.19c0-11.67-8.56-21.39-20.61-21.39s-20.42,9.53-20.42,21.19v.19c0,11.67,8.55,21.39,20.61,21.39s20.42-9.53,20.42-21.19v-.19Z"/>
        <path class="cls-6" d="m343.37,121.29h-11.37v20.42h-14.97v-68.05h27.8c16.23,0,26.05,9.62,26.05,23.53v.19c0,15.75-12.25,23.91-27.51,23.91Zm12.35-23.82c0-6.71-4.67-10.3-12.15-10.3h-11.57v20.8h11.86c7.49,0,11.86-4.47,11.86-10.3v-.19Z"/>
        <path class="cls-6" d="m402.28,142.68c-10.3,0-20.71-3.6-28.87-10.89l8.85-10.6c6.12,5.06,12.54,8.26,20.32,8.26,6.12,0,9.82-2.43,9.82-6.42v-.19c0-3.79-2.33-5.74-13.71-8.65-13.71-3.5-22.55-7.29-22.55-20.8v-.19c0-12.35,9.92-20.51,23.82-20.51,9.92,0,18.37,3.11,25.28,8.65l-7.78,11.28c-6.03-4.18-11.96-6.71-17.69-6.71s-8.75,2.62-8.75,5.93v.19c0,4.47,2.92,5.93,14.68,8.94,13.8,3.6,21.58,8.55,21.58,20.41v.19c0,13.51-10.3,21.1-24.98,21.1Z"/>
        <path class="cls-6" d="m291.47,254.36v-44.43l-19.15,29.07h-.39l-18.96-28.78v44.14h-14.68v-68.05h16.14l17.89,28.78,17.89-28.78h16.14v68.05h-14.87Z"/>
        <path class="cls-6" d="m351.83,255.53c-21,0-36.07-15.65-36.07-35v-.19c0-19.35,15.26-35.19,36.26-35.19s36.07,15.65,36.07,35v.19c0,19.35-15.26,35.19-36.26,35.19Zm20.61-35.19c0-11.67-8.56-21.39-20.61-21.39s-20.42,9.53-20.42,21.19v.19c0,11.67,8.55,21.39,20.61,21.39s20.42-9.53,20.42-21.19v-.19Z"/>
        <path class="cls-6" d="m445.25,254.36l-32.96-43.26v43.26h-14.78v-68.05h13.8l31.89,41.9v-41.9h14.78v68.05h-12.73Z"/>
        <path class="cls-6" d="m494.63,255.33c-10.3,0-20.71-3.6-28.87-10.89l8.85-10.6c6.12,5.06,12.54,8.26,20.32,8.26,6.12,0,9.82-2.43,9.82-6.42v-.19c0-3.79-2.33-5.74-13.71-8.65-13.71-3.5-22.55-7.29-22.55-20.8v-.19c0-12.35,9.92-20.51,23.82-20.51,9.92,0,18.37,3.11,25.28,8.65l-7.78,11.28c-6.03-4.18-11.96-6.71-17.69-6.71s-8.75,2.62-8.75,5.93v.19c0,4.47,2.92,5.93,14.68,8.94,13.8,3.6,21.58,8.55,21.58,20.41v.19c0,13.51-10.3,21.1-24.98,21.1Z"/>
        <path class="cls-6" d="m558.11,200.11v54.25h-14.97v-54.25h-20.71v-13.8h56.38v13.8h-20.71Z"/>
        <path class="cls-6" d="m586.39,254.36v-68.05h51.33v13.32h-36.46v13.8h32.08v13.32h-32.08v14.29h36.94v13.32h-51.81Z"/>
        <path class="cls-6" d="m688.95,254.36l-14.58-21.78h-11.76v21.78h-14.97v-68.05h31.11c16.04,0,25.66,8.46,25.66,22.46v.19c0,10.99-5.93,17.89-14.58,21.1l16.62,24.3h-17.5Zm.29-44.82c0-6.42-4.47-9.72-11.76-9.72h-14.87v19.54h15.17c7.29,0,11.47-3.89,11.47-9.62v-.19Z"/>
      </g>
      <path class="cls-4" d="m96.81,90.48c-1.07-.01-2.15,0-3.21.01-17.03.36-30.6,14.4-30.6,31.44h0c0,16.79,13.19,30.62,29.97,31.41l2.67.13c17.99,0,32.63,14.64,32.63,32.63s-14.64,32.63-32.63,32.63c0,0-62.79,6.13-89.92-65.26C1.89,164-.14,175.39,0,187.28c.62,51.4,42.45,93.5,93.84,94.44,54.22.99,98.38-43.16,97.4-97.39-.93-51.4-43.04-93.23-94.44-93.85Z"/>
      <g class="cls-1">
        <polygon class="cls-5" points="80.08 219.11 1.39 219.11 -14.78 140.71 32.65 147.6 80.08 219.11"/>
      </g>
    </g>
  </g>
</svg>